<svg id="Layer_1" data-name="Layer 1" xmlns="http://www.w3.org/2000/svg" viewBox="0 0 1224 792"><defs><style>.cls-1{fill:#bd9a37;}.cls-2{font-size:22px;}.cls-11,.cls-2{fill:#fff;}.cls-13,.cls-2,.cls-5{font-family:Rogan-Bold, Rogan;font-weight:700;}.cls-3{letter-spacing:-0.01em;}.cls-4{fill:#e6e7e8;}.cls-5{font-size:18px;}.cls-13,.cls-5{fill:#231f20;}.cls-6{letter-spacing:0em;}.cls-7{letter-spacing:-0.01em;}.cls-8{letter-spacing:-0.01em;}.cls-9{fill:#232222;}.cls-10{fill:#bc9a36;}.cls-12{fill:#dcddde;}.cls-13{font-size:18.28px;}</style></defs><title>177426-06995 Artboard 1</title><circle class="cls-1" cx="612" cy="396.05" r="70"/><text class="cls-2" transform="translate(580.54 402.98)">CLIEN<tspan class="cls-3" x="52.87" y="0">T</tspan></text><path class="cls-4" d="M612,233A163,163,0,1,0,775,396,163,163,0,0,0,612,233Zm9.94,247.4L612,470.51l-9.94,9.94a85,85,0,0,1-74.4-74L538,396l-10.39-10.39a85,85,0,0,1,74.4-74l9.94,9.94,9.94-9.94a85,85,0,0,1,74.51,74.9L687,396l9.5,9.5A85,85,0,0,1,621.94,480.45Z"/><text class="cls-5" transform="translate(545.6 290.98)"><tspan class="cls-6">A</tspan><tspan x="10.03" y="0">ccou</tspan><tspan class="cls-7" x="47.48" y="0">n</tspan><tspan x="56.99" y="0">t Mana</tspan><tspan class="cls-8" x="108.43" y="0">g</tspan><tspan x="117.41" y="0">er</tspan></text><path class="cls-9" d="M611.52,267.94l5-10.32H613.6L608,269.17a1,1,0,0,0,.88,1.4h12.74l1.25-2.63Z"/><polygon class="cls-9" points="629.98 257.62 623.69 270.58 626.61 270.58 632.9 257.62 629.98 257.62"/><path class="cls-9" d="M594.33,257.62H581.87l-1.28,2.63h11.32l-1.23,2.54H579.36l-3.76,7.74h2.92l2.48-5.11h4.46l2.52,5.17h2.92l-2.52-5.16h2.69a2,2,0,0,0,1.79-1.12l2.46-5.07A1.12,1.12,0,0,0,594.33,257.62Z"/><polygon class="cls-10" points="600.02 260.25 607.73 260.25 611.81 257.62 611.81 257.62 598.37 257.62 598.37 257.62 600.02 260.25"/><path class="cls-9" d="M608,265.41l1.2-2.63h-13.3l-3.11,6.41a1,1,0,0,0,.87,1.38h11.92l1.25-2.63H596.28l1.23-2.54Z"/><path class="cls-9" d="M647.39,257.62H636.09a1.73,1.73,0,0,0-1.56,1l-5.12,10.55a1,1,0,0,0,.89,1.42h12.45l1.28-2.63H632.92l3.73-7.69h8.14l-.86,1.78h2.92l1.44-3A1,1,0,0,0,647.39,257.62Z"/><path class="cls-11" d="M711.68,248.17a177.84,177.84,0,0,0-88.62-30.1h-.22L612,228.88l-10.83-10.83h-.23a177.83,177.83,0,0,0-88.62,30.1l-46-63.27a256.53,256.53,0,0,1,291.29,0Z"/><path class="cls-12" d="M612,140a254.48,254.48,0,0,1,144.94,45l-45.38,62.46a178.33,178.33,0,0,0-88.47-29.92l-.45,0-.32.32L612,228.18l-10.32-10.32-.32-.32-.45,0a178.33,178.33,0,0,0-88.47,29.92L467.06,185A254.48,254.48,0,0,1,612,140m0-1a255.79,255.79,0,0,0-146.35,45.73l46.55,64.07A176.84,176.84,0,0,1,601,218.57l11,11,11-11a176.84,176.84,0,0,1,88.78,30.29l46.55-64.07A255.79,255.79,0,0,0,612,139Z"/><path class="cls-11" d="M783.25,445.88a179.18,179.18,0,0,0,1.45-94.36l-.06-.22-13.87-7.13,7.07-13.74-.08-.21a179,179,0,0,0-54-73.14l46-63.3a259,259,0,0,1,71.81,87.69A253.83,253.83,0,0,1,868.5,396a256.67,256.67,0,0,1-10.85,74Z"/><path class="cls-12" d="M769.83,194.5a258.5,258.5,0,0,1,71.26,87.2A253.34,253.34,0,0,1,868,396a256.18,256.18,0,0,1-10.69,73.37l-73.45-23.86a179.68,179.68,0,0,0,1.32-94.16l-.11-.43-.4-.21L771.45,344l6.73-13.1.21-.4-.17-.42a179.5,179.5,0,0,0-53.8-73l45.41-62.5m-.2-1.43-46.58,64.11a178.33,178.33,0,0,1,54.24,73.23l-7.19,14,14.11,7.25a178.67,178.67,0,0,1-1.58,94.56L858,470.69a257.28,257.28,0,0,0-88.34-277.62Z"/><path class="cls-11" d="M619.5,574.2a178,178,0,0,0,87.91-27.5l.19-.12,2.48-15.71,15.69,2.47.17-.14a179,179,0,0,0,52.52-73.11l74.45,24.19A256.62,256.62,0,0,1,619.5,652.44Z"/><path class="cls-12" d="M778.76,460.72l73.51,23.88A256.12,256.12,0,0,1,620,651.92V574.68a178.49,178.49,0,0,0,87.67-27.55l.38-.24.07-.45,2.36-15,15,2.36.45.07.35-.29a179.49,179.49,0,0,0,52.49-72.87m-.59-1.24a178.21,178.21,0,0,1-52.54,73.34l-16-2.52-2.52,16A176.85,176.85,0,0,1,619,573.72V653c108-2.89,199.41-72.42,234.56-169l-75.4-24.5Z"/><path class="cls-11" d="M604.5,652.44A256.62,256.62,0,0,1,371.09,484.29l74.45-24.19a179,179,0,0,0,52.54,73.12l.17.14,15.8-2.49,2.49,15.8.19.12A178,178,0,0,0,604.5,574.2Z"/><path class="cls-12" d="M445.24,460.72a179.49,179.49,0,0,0,52.52,72.88l.35.29.45-.07,15.08-2.38L516,546.53l.07.45.38.24A178.5,178.5,0,0,0,604,574.68v77.24a254.33,254.33,0,0,1-143-49.14A256.7,256.7,0,0,1,371.74,484.6l73.51-23.88m.59-1.24L370.44,484C405.59,580.53,497,650.06,605,653V573.72a176.85,176.85,0,0,1-88-27.35l-2.53-16.07-16.07,2.53a178.21,178.21,0,0,1-52.56-73.36Z"/><path class="cls-11" d="M366.35,470.05a256.66,256.66,0,0,1-10.85-74,253.83,253.83,0,0,1,27-114.58,259,259,0,0,1,71.81-87.69l46,63.3a179,179,0,0,0-54,73.14l-.08.21,7.07,13.74-13.86,7.13-.06.22a179.17,179.17,0,0,0,1.45,94.36Z"/><path class="cls-12" d="M454.17,194.5,499.58,257a179.5,179.5,0,0,0-53.8,73l-.17.42.21.4,6.73,13.1-13.22,6.8-.4.21-.11.43a179.68,179.68,0,0,0,1.32,94.16l-73.45,23.86A256.18,256.18,0,0,1,356,396a253.34,253.34,0,0,1,26.9-114.36,258.5,258.5,0,0,1,71.26-87.2m.2-1.43A257.28,257.28,0,0,0,366,470.69l75.34-24.48a178.67,178.67,0,0,1-1.58-94.56l14.11-7.25-7.19-14a178.33,178.33,0,0,1,54.24-73.23l-46.58-64.11Z"/><text class="cls-13" transform="matrix(0.99, -0.12, 0.12, 0.99, 580.96, 188.13)">C</text><text class="cls-13" transform="translate(591.1 186.91) rotate(-4.87)">r</text><text class="cls-13" transform="matrix(1, -0.05, 0.05, 1, 596.72, 186.39)">e</text><text class="cls-13" transform="translate(606.11 185.92) rotate(-0.28)">a</text><text class="cls-13" transform="translate(615.26 185.9) rotate(1.81)">t</text><text class="cls-13" transform="translate(621.51 186.11) rotate(3.24)">i</text><text class="cls-13" transform="translate(625.66 186.31) rotate(4.99)">v</text><text class="cls-13" transform="translate(633.87 187.01) rotate(7.38)">e</text><text class="cls-13" transform="translate(803.19 308.98) rotate(67.33)">M</text><text class="cls-13" transform="translate(808.26 321.25) rotate(70.44)">e</text><text class="cls-13" transform="translate(811.43 330.15) rotate(73.07)">d</text><text class="cls-13" transform="translate(814.21 339.45) rotate(74.97)">i</text><text class="cls-13" transform="translate(815.33 343.45) rotate(76.83)">a</text><text class="cls-13" transform="matrix(-0.63, 0.78, -0.78, -0.63, 777.75, 525.02)">P</text><text class="cls-13" transform="translate(771.66 532.51) rotate(131.77)">u</text><text class="cls-13" transform="translate(765.23 539.71) rotate(134.4)">b</text><text class="cls-13" transform="translate(758.4 546.62) rotate(136.3)">l</text><text class="cls-13" transform="translate(755.39 549.5) rotate(137.44)">i</text><text class="cls-13" transform="matrix(-0.76, 0.65, -0.65, -0.76, 752.36, 552.34)">c</text><text class="cls-13" transform="matrix(-0.78, 0.63, -0.63, -0.78, 745.4, 558.28)"> </text><text class="cls-13" transform="matrix(-0.8, 0.6, -0.6, -0.8, 742.63, 560.59)">R</text><text class="cls-13" transform="matrix(-0.82, 0.57, -0.57, -0.82, 734.82, 566.51)">e</text><text class="cls-13" transform="matrix(-0.84, 0.54, -0.54, -0.84, 726.98, 571.85)">l</text><text class="cls-13" transform="matrix(-0.86, 0.51, -0.51, -0.86, 723.51, 574.12)">a</text><text class="cls-13" transform="translate(715.64 578.78) rotate(151.31)">t</text><text class="cls-13" transform="translate(710.13 581.78) rotate(152.74)">i</text><text class="cls-13" transform="matrix(-0.9, 0.43, -0.43, -0.9, 706.49, 583.71)">o</text><text class="cls-13" transform="translate(697.77 587.85) rotate(157.27)">n</text><text class="cls-13" transform="translate(688.81 591.59) rotate(159.77)">s</text><text class="cls-13" transform="matrix(-0.93, -0.36, 0.36, -0.93, 541.59, 594.14)">D</text><text class="cls-13" transform="matrix(-0.92, -0.39, 0.39, -0.92, 531.73, 590.31)">i</text><text class="cls-13" transform="translate(527.89 588.73) rotate(-155.24)">g</text><text class="cls-13" transform="translate(519.51 584.83) rotate(-153.42)">i</text><text class="cls-13" transform="translate(515.78 582.98) rotate(-152)">t</text><text class="cls-13" transform="translate(510.35 580.13) rotate(-149.9)">a</text><text class="cls-13" transform="translate(502.27 575.39) rotate(-148.04)">l</text><text class="cls-13" transform="translate(498.73 573.18) rotate(-146.97)"> </text><text class="cls-13" transform="translate(495.66 571.31) rotate(-144.65)">M</text><text class="cls-13" transform="matrix(-0.78, -0.62, 0.62, -0.78, 484.87, 563.6)">a</text><text class="cls-13" transform="translate(477.55 557.75) rotate(-139.45)">r</text><text class="cls-13" transform="matrix(-0.74, -0.68, 0.68, -0.74, 473.05, 553.93)">k</text><text class="cls-13" transform="translate(466.79 548.2) rotate(-135.01)">e</text><text class="cls-13" transform="matrix(-0.68, -0.73, 0.73, -0.68, 460.27, 541.65)">t</text><text class="cls-13" transform="translate(456 537.05) rotate(-131.49)">i</text><text class="cls-13" transform="translate(453.22 533.98) rotate(-129.6)">n</text><text class="cls-13" transform="matrix(-0.6, -0.8, 0.8, -0.6, 447.02, 526.48)">g</text><text class="cls-13" transform="matrix(0.04, -1, 1, 0.04, 401.57, 396.08)">W</text><text class="cls-13" transform="translate(402.16 381.4) rotate(-84.75)">e</text><text class="cls-13" transform="translate(403.02 371.97) rotate(-82.14)">b</text><text class="cls-13" transform="translate(404.39 362.36) rotate(-80.32)"> </text><text class="cls-13" transform="matrix(0.2, -0.98, 0.98, 0.2, 404.94, 358.78)">D</text><text class="cls-13" transform="translate(407.07 348.47) rotate(-75.65)">e</text><text class="cls-13" transform="translate(409.35 339.56) rotate(-73.26)">v</text><text class="cls-13" transform="translate(411.7 331.69) rotate(-70.87)">e</text><text class="cls-13" transform="translate(414.86 322.72) rotate(-68.99)">l</text><text class="cls-13" transform="translate(416.3 318.83) rotate(-67.09)">o</text><text class="cls-13" transform="matrix(0.43, -0.9, 0.9, 0.43, 420.04, 309.99)">p</text><text class="cls-13" transform="matrix(0.48, -0.88, 0.88, 0.48, 424.12, 301.25)">m</text><text class="cls-13" transform="matrix(0.53, -0.85, 0.85, 0.53, 431.36, 288.3)">e</text><text class="cls-13" transform="translate(436.4 280.28) rotate(-55.17)">n</text><text class="cls-13" transform="translate(441.87 272.47) rotate(-53.07)">t</text></svg>