<svg id="Layer_1" data-name="Layer 1" xmlns="http://www.w3.org/2000/svg" viewBox="0 0 1224 792"><defs><style>.cls-1{font-size:34.69px;fill:#232222;font-family:Rogan-ExtraBold, Rogan;letter-spacing:0.04em;}.cls-1,.cls-19,.cls-24,.cls-9{font-weight:700;}.cls-2{letter-spacing:0.05em;}.cls-3{letter-spacing:0.03em;}.cls-4{letter-spacing:-0.04em;}.cls-5{letter-spacing:0.03em;}.cls-6{letter-spacing:0.05em;}.cls-7{letter-spacing:0.05em;}.cls-19,.cls-8{fill:#bd9a37;}.cls-20,.cls-9{font-size:24px;}.cls-9{fill:#fff;letter-spacing:0.3em;}.cls-19,.cls-24,.cls-9{font-family:Rogan-Bold, Rogan;}.cls-10{letter-spacing:0.29em;}.cls-11{letter-spacing:0.28em;}.cls-12{letter-spacing:0.3em;}.cls-13{letter-spacing:0.18em;}.cls-14{letter-spacing:0.29em;}.cls-15{letter-spacing:0.3em;}.cls-16{letter-spacing:0.29em;}.cls-17{letter-spacing:0.3em;}.cls-18{fill:#e6e7e8;}.cls-19,.cls-24{font-size:36px;}.cls-20,.cls-24{fill:#333132;}.cls-21{letter-spacing:-0.02em;}.cls-22{letter-spacing:-0.02em;}.cls-23{letter-spacing:-0.01em;}.cls-25{fill:#0084b6;}.cls-26{letter-spacing:-0.01em;}.cls-27{letter-spacing:0em;}.cls-28{letter-spacing:-0.01em;}.cls-29{letter-spacing:0.01em;}.cls-30{letter-spacing:0em;}.cls-31{letter-spacing:-0.01em;}.cls-32{letter-spacing:0.02em;}</style></defs><title>177426-06995 Artboard 1 copy 14</title><text class="cls-1" transform="translate(453.16 72.65)">F<tspan class="cls-2" x="17.8" y="0">OUN</tspan><tspan class="cls-3" x="86.45" y="0">D</tspan><tspan class="cls-4" x="107.76" y="0">A</tspan><tspan class="cls-2" x="126.28" y="0">TIONA</tspan><tspan class="cls-5" x="222.69" y="0">L</tspan><tspan class="cls-6" x="239.97" y="0" xml:space="preserve"> FIV</tspan><tspan class="cls-7" x="298.08" y="0">E</tspan></text><rect class="cls-8" x="45.56" y="171.58" width="1136" height="62.4"/><text class="cls-9" transform="translate(375.6 211.88)">EFF<tspan class="cls-10" x="56.38" y="0">E</tspan><tspan class="cls-11" x="75.5" y="0">C</tspan><tspan class="cls-12" x="95.76" y="0">TIVE</tspan><tspan class="cls-13" x="166.73" y="0">L</tspan><tspan class="cls-14" x="182.11" y="0">Y</tspan><tspan x="200.97" y="0" xml:space="preserve"> EN</tspan><tspan class="cls-11" x="254.76" y="0">GA</tspan><tspan class="cls-12" x="295.73" y="0">G</tspan><tspan class="cls-15" x="316.97" y="0">E</tspan><tspan x="336.41" y="0" xml:space="preserve"> B</tspan><tspan class="cls-16" x="369.17" y="0">U</tspan><tspan class="cls-12" x="390.36" y="0">YE</tspan><tspan class="cls-17" x="428.9" y="0">R</tspan><tspan class="cls-12" x="449.4" y="0">S</tspan></text><polygon class="cls-18" points="269.04 252.88 269.04 238.4 45.56 238.4 45.56 252.88 65.51 255.92 65.51 600.9 45.56 602.94 45.56 620.42 269.04 620.42 269.04 602.94 249.09 600.9 249.09 255.92 269.04 252.88"/><text class="cls-19" transform="translate(122.71 463.08)">Who<tspan class="cls-20"><tspan x="-2.33" y="30">a</tspan><tspan class="cls-21" x="10.08" y="30">r</tspan><tspan x="17.62" y="30">e </tspan><tspan class="cls-22" x="35.09" y="30">y</tspan><tspan x="45.86" y="30">ou </tspan><tspan x="-16.79" y="60">selling </tspan><tspan class="cls-23" x="54.13" y="60">t</tspan><tspan x="62.2" y="60">o?</tspan></tspan></text><text class="cls-24" transform="translate(148.38 295.03)">1</text><path class="cls-25" d="M157.3,388.37A23.4,23.4,0,1,1,180.7,365,23.43,23.43,0,0,1,157.3,388.37Zm0-43A19.6,19.6,0,1,0,176.9,365,19.62,19.62,0,0,0,157.3,345.37Z"/><path class="cls-25" d="M157.3,403.51A38.54,38.54,0,1,1,195.85,365,38.59,38.59,0,0,1,157.3,403.51Zm0-69.48A30.94,30.94,0,1,0,188.24,365,31,31,0,0,0,157.3,334Z"/><rect class="cls-25" x="113.53" y="363.07" width="32.18" height="3.8"/><rect class="cls-25" x="168.9" y="363.07" width="32.18" height="3.8"/><rect class="cls-25" x="155.4" y="321.2" width="3.8" height="32.18"/><rect class="cls-25" x="155.4" y="376.56" width="3.8" height="32.18"/><circle class="cls-25" cx="157.3" cy="364.97" r="3.96"/><polygon class="cls-18" points="497.17 252.88 497.17 238.4 273.69 238.4 273.69 252.88 293.64 255.92 293.64 600.9 273.69 602.94 273.69 620.42 497.17 620.42 497.17 602.94 477.22 600.9 477.22 255.92 497.17 252.88"/><text class="cls-24" transform="translate(375.3 295.03)">2</text><text class="cls-19" transform="translate(345.1 463.08)">Wh<tspan class="cls-23" x="49.97" y="0">a</tspan><tspan x="68.18" y="0">t</tspan><tspan class="cls-20"><tspan x="3.41" y="30">a</tspan><tspan class="cls-21" x="15.82" y="30">r</tspan><tspan x="23.36" y="30">e </tspan><tspan class="cls-22" x="40.83" y="30">y</tspan><tspan x="51.61" y="30">ou </tspan><tspan x="1.83" y="60">selling?</tspan></tspan></text><rect class="cls-25" x="368.75" y="346.85" width="8.25" height="35.15"/><rect class="cls-25" x="398.1" y="346.85" width="8.25" height="35.15"/><rect class="cls-25" x="360.22" y="346.85" width="4.13" height="35.15"/><rect class="cls-25" x="380.6" y="346.85" width="2.06" height="35.15"/><rect class="cls-25" x="387.74" y="346.85" width="2.06" height="35.15"/><rect class="cls-25" x="392.63" y="346.85" width="2.06" height="35.15"/><rect class="cls-25" x="408.82" y="346.85" width="2.06" height="35.15"/><polygon class="cls-25" points="344 361.78 349.58 361.78 349.58 337.05 379.08 337.05 379.08 331.92 344 331.92 344 361.78"/><polygon class="cls-25" points="391.78 331.92 391.78 337.05 421.29 337.05 421.29 361.78 426.86 361.78 426.86 331.92 391.78 331.92"/><polygon class="cls-25" points="421.29 392.88 391.78 392.88 391.78 398.02 426.86 398.02 426.86 368.16 421.29 368.16 421.29 392.88"/><polygon class="cls-25" points="349.58 368.16 344 368.16 344 398.02 379.08 398.02 379.08 392.88 349.58 392.88 349.58 368.16"/><polygon class="cls-18" points="725.3 252.88 725.3 238.4 501.83 238.4 501.83 252.88 521.77 255.92 521.77 600.9 501.83 602.94 501.83 620.42 725.3 620.42 725.3 602.94 705.36 600.9 705.36 255.92 725.3 252.88"/><text class="cls-24" transform="translate(603.59 295.03)">3</text><text class="cls-19" transform="translate(579.81 463.08)">H<tspan class="cls-26" x="21.74" y="0">o</tspan><tspan x="40.61" y="0">w</tspan><tspan class="cls-20"><tspan x="-36.04" y="30">do cu</tspan><tspan class="cls-27" x="19.49" y="30">s</tspan><tspan class="cls-23" x="31.01" y="30">t</tspan><tspan x="39.08" y="30">ome</tspan><tspan class="cls-28" x="84.22" y="30">r</tspan><tspan x="92" y="30">s </tspan><tspan x="9.73" y="60">bu</tspan><tspan class="cls-29" x="35.43" y="60">y</tspan><tspan x="46.81" y="60">?</tspan></tspan></text><path class="cls-25" d="M599.89,384.12h41a2.74,2.74,0,0,0,2.66-2.07l8.21-32.83a2.74,2.74,0,0,0-2.66-3.4H591.64l-2.82-9a2.74,2.74,0,0,0-2.61-1.92H578a2.74,2.74,0,0,0,0,5.47h6.2l12.13,38.8a9.46,9.46,0,0,0-7.38,9.07c0,4.22,3,8.47,8.65,9.38a8.16,8.16,0,0,0,15.47.2H625a8.16,8.16,0,0,0,15.41,0h3.24a2.74,2.74,0,0,0,0-5.47h-3.24a8.16,8.16,0,0,0-15.41,0H613.06a8.17,8.17,0,0,0-15.32-.28,4,4,0,0,1-3.33-3.82C594.41,386.18,596.1,384.12,599.89,384.12Zm8.21-5.47h-6.2l-1.71-5.47h7.9Zm0-10.94h-9.61l-1.71-5.47h11.32Zm24.62-16.41h12.91l-1.39,5.59a2.75,2.75,0,0,0-.57-.11H632.71Zm0,10.94h10.17l-1.37,5.47h-8.81Zm0,10.94h7.44l-1.37,5.47h-6.07Zm-19.15-21.88h13.68v5.47H613.56Zm0,10.94h13.68v5.47H613.56Zm0,10.94h13.68v5.47H613.56Zm-18.5-16.41-1.71-5.47h14.74v5.47Zm37.65,35.29a3,3,0,1,1-3,3A3,3,0,0,1,632.71,392.05Zm-27.36,0a3,3,0,1,1-3,3A3,3,0,0,1,605.36,392.05Zm23.36-59.91,16.15,2.67a1.83,1.83,0,0,1,1.45,2.35l-1.81,5.93H632.67ZM596.6,343.08l-2.1-6.41a1.8,1.8,0,0,1,.11-1.39,1.82,1.82,0,0,1,1.07-.9l24.23-7.62a1.84,1.84,0,0,1,2.25,1l6.41,15.29Z"/><polygon class="cls-18" points="1181.56 252.88 1181.56 238.4 958.09 238.4 958.09 252.88 978.04 255.92 978.04 600.9 958.09 602.94 958.09 620.42 1181.56 620.42 1181.56 605.94 1161.62 600.9 1161.62 255.92 1181.56 252.88"/><text class="cls-24" transform="translate(1059.75 295.03)">5</text><text class="cls-19" transform="translate(1036.08 463.08)">H<tspan class="cls-26" x="21.74" y="0">o</tspan><tspan x="40.61" y="0">w</tspan><tspan class="cls-20"><tspan x="-25.23" y="30">a</tspan><tspan class="cls-21" x="-12.82" y="30">r</tspan><tspan x="-5.29" y="30">e l</tspan><tspan class="cls-30" x="17.75" y="30">e</tspan><tspan x="30.31" y="30">ads or </tspan><tspan x="-27.89" y="60">co</tspan><tspan class="cls-22" x="-2.93" y="60">nv</tspan><tspan x="20.61" y="60">e</tspan><tspan class="cls-28" x="33.21" y="60">r</tspan><tspan x="40.99" y="60">sions </tspan><tspan x="-15.03" y="90">d</tspan><tspan class="cls-31" x="-2.17" y="90">e</tspan><tspan x="10.15" y="90">fined &amp; </tspan><tspan x="-22.77" y="120">m</tspan><tspan class="cls-30" x="-3.04" y="120">e</tspan><tspan x="9.51" y="120">asu</tspan><tspan class="cls-21" x="46.3" y="120">r</tspan><tspan x="53.84" y="120">ed?</tspan></tspan></text><polygon class="cls-25" points="1029.91 370.79 1029.91 392.93 1050.08 392.93 1050.08 356.33 1029.91 370.79"/><polygon class="cls-25" points="1068.14 368.22 1054.69 357.03 1054.69 392.93 1074.85 392.93 1074.85 363.52 1068.14 368.22"/><polygon class="cls-25" points="1079.47 360.29 1079.47 392.93 1099.63 392.93 1099.63 346.17 1079.47 360.29"/><polygon class="cls-25" points="1113.56 327 1095.44 327.58 1099.28 333.06 1068.63 354.52 1052.53 341.12 1026.09 360.09 1029.86 365.34 1052.24 349.29 1068.3 362.65 1102.99 338.36 1106.83 343.84 1113.56 327"/><polygon class="cls-18" points="953.43 252.88 953.43 238.4 729.96 238.4 729.96 252.88 749.9 255.92 749.9 600.9 729.96 602.94 729.96 620.42 953.43 620.42 953.43 602.94 933.49 600.9 933.49 255.92 953.43 252.88"/><text class="cls-24" transform="translate(832.06 295.03)">4</text><text class="cls-19" transform="translate(807.1 463.08)">Who<tspan class="cls-20"><tspan class="cls-30" x="-26.6" y="30">p</tspan><tspan x="-13.79" y="30">a</tspan><tspan class="cls-32" x="-1.38" y="30">r</tspan><tspan x="7.02" y="30">tici</tspan><tspan class="cls-30" x="38.63" y="30">p</tspan><tspan class="cls-23" x="51.44" y="30">at</tspan><tspan x="71.65" y="30">es </tspan><tspan x="-16.38" y="60">in buying?</tspan></tspan></text><path class="cls-25" d="M861.81,390.68a29,29,0,0,1-1.4,5.86H795.05a29.15,29.15,0,0,1-1.4-5.86c-.52-5.25,3-7.72,7.74-9.74,5.6-2.38,13-7,16.55-8.35l.52-4.32c-2.07-2.57-2.31-4.76-3.3-8.52a3.18,3.18,0,0,1-1.54-2.12l-1.19-6.69a2.55,2.55,0,0,1,1.18-2.34c0-10,3.76-16.47,14.11-16.47s14.11,6.47,14.11,16.47a2.57,2.57,0,0,1,1.19,2.34l-1.19,6.69a3.19,3.19,0,0,1-1.54,2.12c-1,3.76-1.22,5.95-3.3,8.52l.52,4.32c3.52,1.33,11.06,5.74,16.66,8.12C859,382.73,862.33,385.43,861.81,390.68Zm21.93-6.93c-5.67-3.25-12.9-6-14.15-8.23,1-2.48,5.84-.6,9.1-2.3.57-.3.65-.76.19-1.54-1.75-2.88-4.33-7.37-4.28-17.1s-4.92-17.14-13.72-17.14-13.71,7.42-13.71,17.14c0,8.89-2.19,11.1-4.27,15.17a3,3,0,0,0-.23.58c1.44.7,3.08,1.54,4.86,2.46,2.93,1.52,6.25,3.24,8.93,4.38s10.87,4.6,10,13.89a29.91,29.91,0,0,1-1.18,5.47h23.1a21.21,21.21,0,0,0,1.46-6.23C889.88,387.31,888.46,386.45,883.75,383.76Z"/></svg>