<svg xmlns="http://www.w3.org/2000/svg" xmlns:xlink="http://www.w3.org/1999/xlink" viewBox="0 0 1224 792"><defs><style>.cls-1{isolation:isolate;}.cls-2{fill:#0084b6;}.cls-3{fill:#3bb54a;}.cls-4{opacity:0.75;}.cls-5{fill:#e6e7e8;}.cls-16,.cls-6{font-size:24px;}.cls-17,.cls-6,.cls-8{fill:#fff;}.cls-16,.cls-17,.cls-6{font-family:Rogan-Bold, Rogan;}.cls-16,.cls-17,.cls-6,.cls-8{font-weight:700;}.cls-7{letter-spacing:-0.01em;}.cls-8{font-size:16px;font-family:Rogan-ExtraBold, Rogan;letter-spacing:0.09em;}.cls-9{letter-spacing:0.01em;}.cls-10{letter-spacing:0.1em;}.cls-11{letter-spacing:0.08em;}.cls-12{letter-spacing:0.1em;}.cls-13{fill:#bc9a36;}.cls-14,.cls-16{fill:#232222;}.cls-15{opacity:0.78;mix-blend-mode:overlay;fill:url(#linear-gradient);}.cls-17{opacity:0.6;font-size:12.11px;}</style><linearGradient id="linear-gradient" x1="824.66" y1="574.33" x2="889.97" y2="222.65" gradientUnits="userSpaceOnUse"><stop offset="0" stop-color="#fff" stop-opacity="0"/><stop offset="0.33" stop-color="#fff"/><stop offset="0.7" stop-color="#fff" stop-opacity="0"/><stop offset="1" stop-color="#fff"/></linearGradient></defs><title>177426-06995 Artboard 1 copy</title><g class="cls-1"><g id="Layer_1" data-name="Layer 1"><path class="cls-2" d="M857.78,217.14A178.82,178.82,0,1,0,1036.6,396,178.82,178.82,0,0,0,857.78,217.14Zm0,333.67A154.86,154.86,0,1,1,1012.64,396,154.86,154.86,0,0,1,857.78,550.82Z"/><polygon class="cls-3" points="501.4 137.13 527.67 178.71 503.54 216.9 857.78 216.9 857.78 137.13 501.4 137.13"/><g class="cls-4"><polygon class="cls-3" points="501.4 137.13 527.67 178.71 503.54 216.9 439.5 216.9 439.5 137.13 501.4 137.13"/></g><path class="cls-5" d="M684.28,258.67l21.86,42.55a178.84,178.84,0,0,1,303-.5l47.76,2.65,22.51-41.26a258.93,258.93,0,0,0-442-2Z"/><path class="cls-5" d="M1086.35,274.39l-22.57,41.38-47.51-2.64A178.86,178.86,0,0,1,866.67,574.6l-26.55,42,24.12,38.18c140-3.43,252.41-118,252.41-258.79A257.71,257.71,0,0,0,1086.35,274.39Z"/><path class="cls-5" d="M825.93,616.61l26.46-41.88A178.86,178.86,0,0,1,699,313.64l-22-42.75-46.77,1.44A257.71,257.71,0,0,0,598.91,396c0,140.38,111.74,254.65,251.12,258.75Z"/><text class="cls-6" transform="translate(557.42 185.9)">RESEA<tspan class="cls-7" x="63.67" y="0">R</tspan><tspan x="76.82" y="0">CH</tspan></text><text class="cls-8" transform="translate(454.03 176.31)">S<tspan class="cls-9" x="9.92" y="0">T</tspan><tspan class="cls-10" x="17.6" y="0">A</tspan><tspan class="cls-11" x="28.38" y="0">R</tspan><tspan x="38.66" y="0">T</tspan><tspan class="cls-10" x="47.62" y="0"></tspan><tspan class="cls-12"><tspan x="3.13" y="18">WITH</tspan></tspan></text><polygon class="cls-13" points="839.4 364.03 903.35 364.03 937.22 342.23 937.22 342.23 825.75 342.23 825.75 342.23 839.4 364.03"/><path class="cls-14" d="M905.37,406.86l9.91-21.81H805l-25.8,53.16a8,8,0,0,0,7.18,11.47H885.2l10.38-21.81H808.43l10.2-21Z"/><path class="cls-15" d="M701.67,483.2a178.84,178.84,0,0,1,154.22-266l7.9,12.5-7.23,11.45A154.88,154.88,0,0,0,722.33,471.06l-14.57-.21ZM869.85,229.67l-7.28,11.52A154.88,154.88,0,0,1,989.9,476.77l5.35,12,15.2.35A178.84,178.84,0,0,0,862,217.2ZM991.9,493.79l-5.3-11.86a154.89,154.89,0,0,1-261.27-5.7l-14.4-.21-6.17,12.5a178.85,178.85,0,0,0,302.48,5.62Z"/><text class="cls-16" transform="translate(809.21 192.72) rotate(-11.55)">A</text><text class="cls-16" transform="matrix(0.99, -0.13, 0.13, 0.99, 822.15, 190.03)">N</text><text class="cls-16" transform="translate(836.95 188.06) rotate(-3.8)">A</text><text class="cls-16" transform="translate(850.19 187.21) rotate(-0.53)">L</text><text class="cls-16" transform="translate(858.19 187.14) rotate(1.12)">Y</text><text class="cls-16" transform="translate(869.69 187.4) rotate(4.95)">S</text><text class="cls-16" transform="translate(882.07 188.54) rotate(7.41)">I</text><text class="cls-16" transform="translate(887.67 189.19) rotate(9.88)">S</text><text class="cls-17" transform="translate(937.9 256.2) rotate(30.98)">C</text><text class="cls-17" transform="translate(946.08 261.2) rotate(34.47)">O</text><text class="cls-17" transform="translate(954.3 266.94) rotate(38.13)">N</text><text class="cls-17" transform="matrix(0.75, 0.66, -0.66, 0.75, 962.46, 273.49)">T</text><text class="cls-17" transform="translate(968.73 279.17) rotate(44.06)">I</text><text class="cls-17" transform="translate(972.84 283.16) rotate(46.97)">N</text><text class="cls-17" transform="translate(979.89 290.85) rotate(50.62)">U</text><text class="cls-17" transform="matrix(0.59, 0.81, -0.81, 0.59, 986.15, 298.62)">O</text><text class="cls-17" transform="matrix(0.53, 0.85, -0.85, 0.53, 991.94, 306.79)">U</text><text class="cls-17" transform="matrix(0.49, 0.87, -0.87, 0.49, 997.17, 315.29)">S</text><text class="cls-17" transform="matrix(0.44, 0.9, -0.9, 0.44, 1001.53, 323.34)"> </text><text class="cls-17" transform="translate(1003.86 328.08) rotate(66.16)">P</text><text class="cls-17" transform="translate(1007.54 336.59) rotate(69.5)">R</text><text class="cls-17" transform="translate(1010.77 345.44) rotate(72.95)">O</text><text class="cls-17" transform="translate(1013.62 355.07) rotate(76.47)">C</text><text class="cls-17" transform="translate(1015.78 364.42) rotate(79.78)">E</text><text class="cls-17" transform="translate(1017.29 373.22) rotate(83.03)">S</text><text class="cls-17" transform="translate(1018.32 382.29) rotate(86.3)">S</text><text class="cls-17" transform="matrix(-0.89, 0.45, -0.45, -0.89, 932.98, 538.45)">C</text><text class="cls-17" transform="translate(924.38 542.68) rotate(156.83)">O</text><text class="cls-17" transform="translate(915.13 546.55) rotate(160.48)">N</text><text class="cls-17" transform="translate(905.24 549.94) rotate(163.87)">T</text><text class="cls-17" transform="translate(897.08 552.2) rotate(166.42)">I</text><text class="cls-17" transform="translate(891.51 553.54) rotate(169.32)">N</text><text class="cls-17" transform="translate(881.24 555.38) rotate(172.97)">U</text><text class="cls-17" transform="translate(871.33 556.51) rotate(176.54)">O</text><text class="cls-17" transform="translate(861.32 557.03) rotate(-179.93)">U</text><text class="cls-17" transform="translate(851.35 556.9) rotate(-177.05)">S</text><text class="cls-17" transform="translate(842.22 556.27) rotate(-174.05)"> </text><text class="cls-17" transform="matrix(-0.99, -0.15, 0.15, -0.99, 836.96, 555.71)">P</text><text class="cls-17" transform="translate(827.81 554.26) rotate(-168.15)">R</text><text class="cls-17" transform="translate(818.6 552.25) rotate(-164.7)">O</text><text class="cls-17" transform="translate(808.94 549.51) rotate(-161.18)">C</text><text class="cls-17" transform="translate(799.89 546.33) rotate(-157.86)">E</text><text class="cls-17" transform="translate(791.64 542.89) rotate(-154.62)">S</text><text class="cls-17" transform="translate(783.43 538.91) rotate(-151.35)">S</text><text class="cls-17" transform="translate(696.68 395.02) rotate(-88.5)">C</text><text class="cls-17" transform="matrix(0.09, -1, 1, 0.09, 697.01, 385.43)">O</text><text class="cls-17" transform="translate(697.96 375.46) rotate(-81.35)">N</text><text class="cls-17" transform="translate(699.64 365.13) rotate(-77.96)">T</text><text class="cls-17" transform="matrix(0.25, -0.97, 0.97, 0.25, 701.5, 356.88)">I</text><text class="cls-17" transform="translate(702.95 351.33) rotate(-72.52)">N</text><text class="cls-17" transform="matrix(0.36, -0.93, 0.93, 0.36, 706.18, 341.41)">U</text><text class="cls-17" transform="translate(709.86 332.14) rotate(-65.3)">O</text><text class="cls-17" transform="matrix(0.47, -0.88, 0.88, 0.47, 714.12, 323.07)">U</text><text class="cls-17" transform="translate(718.95 314.34) rotate(-58.88)">S</text><text class="cls-17" transform="matrix(0.56, -0.83, 0.83, 0.56, 723.81, 306.59)"> </text><text class="cls-17" transform="matrix(0.6, -0.8, 0.8, 0.6, 726.79, 302.22)">P</text><text class="cls-17" transform="translate(732.39 294.83) rotate(-49.99)">R</text><text class="cls-17" transform="matrix(0.69, -0.73, 0.73, 0.69, 738.5, 287.66)">O</text><text class="cls-17" transform="translate(745.47 280.44) rotate(-43.01)">C</text><text class="cls-17" transform="translate(752.55 273.96) rotate(-39.7)">E</text><text class="cls-17" transform="matrix(0.8, -0.59, 0.59, 0.8, 759.47, 268.32)">S</text><text class="cls-17" transform="translate(766.86 262.95) rotate(-33.19)">S</text><text class="cls-16" transform="translate(1048.25 481.93) rotate(116.19)">C</text><text class="cls-16" transform="matrix(-0.5, 0.87, -0.87, -0.5, 1042.39, 493.86)">R</text><text class="cls-16" transform="translate(1035.86 505.22) rotate(123.27)">E</text><text class="cls-16" transform="translate(1029.34 515.2) rotate(126.7)">A</text><text class="cls-16" transform="translate(1022.7 524.15) rotate(129.37)">T</text><text class="cls-16" transform="matrix(-0.66, 0.75, -0.75, -0.66, 1015.65, 532.65)">I</text><text class="cls-16" transform="translate(1012.01 536.9) rotate(134.33)">O</text><text class="cls-16" transform="matrix(-0.75, 0.67, -0.67, -0.75, 1002.19, 546.99)">N</text><text class="cls-16" transform="translate(706.92 540.53) rotate(-132.09)">E</text><text class="cls-16" transform="matrix(-0.63, -0.78, 0.78, -0.63, 698.93, 531.71)">X</text><text class="cls-16" transform="translate(691.04 521.86) rotate(-125.32)">E</text><text class="cls-16" transform="translate(684.25 512.33) rotate(-121.92)">C</text><text class="cls-16" transform="translate(677.2 501.06) rotate(-118.21)">U</text><text class="cls-16" transform="translate(670.64 488.73) rotate(-114.85)">T</text><text class="cls-16" transform="translate(666.03 478.66) rotate(-112.59)">I</text><text class="cls-16" transform="translate(663.78 473.52) rotate(-109.89)">O</text><text class="cls-16" transform="translate(658.96 460.29) rotate(-105.91)">N</text></g></g></svg>