<svg id="Layer_1" data-name="Layer 1" xmlns="http://www.w3.org/2000/svg" viewBox="0 0 1224 792"><defs><style>.cls-1,.cls-12{fill:#bd9a37;}.cls-13,.cls-2{font-size:24px;}.cls-2{fill:#fff;letter-spacing:0.3em;}.cls-12,.cls-17,.cls-2{font-family:Rogan-Bold, Rogan;font-weight:700;}.cls-3{letter-spacing:0.29em;}.cls-4{letter-spacing:0.28em;}.cls-5{letter-spacing:0.3em;}.cls-6{letter-spacing:0.18em;}.cls-7{letter-spacing:0.29em;}.cls-8{letter-spacing:0.3em;}.cls-9{letter-spacing:0.29em;}.cls-10{letter-spacing:0.3em;}.cls-11{fill:#e6e7e8;}.cls-12,.cls-17{font-size:36px;}.cls-13,.cls-17{fill:#333132;}.cls-14{letter-spacing:-0.02em;}.cls-15{letter-spacing:-0.02em;}.cls-16{letter-spacing:-0.01em;}.cls-18{fill:#0084b6;}.cls-19{letter-spacing:-0.01em;}.cls-20{letter-spacing:0.01em;}.cls-21{letter-spacing:0em;}.cls-22{letter-spacing:0.02em;}.cls-23{letter-spacing:-0.01em;}</style></defs><title>177426-06995 Artboard 1 copy 4</title><rect class="cls-1" x="45.56" y="171.58" width="1136" height="62.4"/><text class="cls-2" transform="translate(375.6 211.88)">EFF<tspan class="cls-3" x="56.38" y="0">E</tspan><tspan class="cls-4" x="75.5" y="0">C</tspan><tspan class="cls-5" x="95.76" y="0">TIVE</tspan><tspan class="cls-6" x="166.73" y="0">L</tspan><tspan class="cls-7" x="182.11" y="0">Y</tspan><tspan x="200.97" y="0" xml:space="preserve"> EN</tspan><tspan class="cls-4" x="254.76" y="0">GA</tspan><tspan class="cls-5" x="295.73" y="0">G</tspan><tspan class="cls-8" x="316.97" y="0">E</tspan><tspan x="336.41" y="0" xml:space="preserve"> B</tspan><tspan class="cls-9" x="369.17" y="0">U</tspan><tspan class="cls-5" x="390.36" y="0">YE</tspan><tspan class="cls-10" x="428.9" y="0">R</tspan><tspan class="cls-5" x="449.4" y="0">S</tspan></text><polygon class="cls-11" points="269.04 252.88 269.04 238.4 45.56 238.4 45.56 252.88 65.51 255.92 65.51 600.9 45.56 602.94 45.56 620.42 269.04 620.42 269.04 602.94 249.09 600.9 249.09 255.92 269.04 252.88"/><text class="cls-12" transform="translate(122.71 463.08)">Who<tspan class="cls-13"><tspan x="-2.33" y="30">a</tspan><tspan class="cls-14" x="10.08" y="30">r</tspan><tspan x="17.62" y="30">e </tspan><tspan class="cls-15" x="35.09" y="30">y</tspan><tspan x="45.86" y="30">ou </tspan><tspan x="-16.79" y="60">selling </tspan><tspan class="cls-16" x="54.13" y="60">t</tspan><tspan x="62.2" y="60">o?</tspan></tspan></text><text class="cls-17" transform="translate(148.38 295.03)">1</text><path class="cls-18" d="M157.3,388.37A23.4,23.4,0,1,1,180.7,365,23.43,23.43,0,0,1,157.3,388.37Zm0-43A19.6,19.6,0,1,0,176.9,365,19.62,19.62,0,0,0,157.3,345.37Z"/><path class="cls-18" d="M157.3,403.51A38.54,38.54,0,1,1,195.85,365,38.59,38.59,0,0,1,157.3,403.51Zm0-69.48A30.94,30.94,0,1,0,188.24,365,31,31,0,0,0,157.3,334Z"/><rect class="cls-18" x="113.53" y="363.07" width="32.18" height="3.8"/><rect class="cls-18" x="168.9" y="363.07" width="32.18" height="3.8"/><rect class="cls-18" x="155.4" y="321.2" width="3.8" height="32.18"/><rect class="cls-18" x="155.4" y="376.56" width="3.8" height="32.18"/><circle class="cls-18" cx="157.3" cy="364.97" r="3.96"/><polygon class="cls-11" points="497.17 252.88 497.17 238.4 273.69 238.4 273.69 252.88 293.64 255.92 293.64 600.9 273.69 602.94 273.69 620.42 497.17 620.42 497.17 602.94 477.22 600.9 477.22 255.92 497.17 252.88"/><text class="cls-17" transform="translate(375.3 295.03)">2</text><text class="cls-12" transform="translate(345.1 463.08)">Wh<tspan class="cls-16" x="49.97" y="0">a</tspan><tspan x="68.18" y="0">t</tspan><tspan class="cls-13"><tspan x="3.41" y="30">a</tspan><tspan class="cls-14" x="15.82" y="30">r</tspan><tspan x="23.36" y="30">e </tspan><tspan class="cls-15" x="40.83" y="30">y</tspan><tspan x="51.61" y="30">ou </tspan><tspan x="1.83" y="60">selling?</tspan></tspan></text><rect class="cls-18" x="368.75" y="346.85" width="8.25" height="35.15"/><rect class="cls-18" x="398.1" y="346.85" width="8.25" height="35.15"/><rect class="cls-18" x="360.22" y="346.85" width="4.13" height="35.15"/><rect class="cls-18" x="380.6" y="346.85" width="2.06" height="35.15"/><rect class="cls-18" x="387.74" y="346.85" width="2.06" height="35.15"/><rect class="cls-18" x="392.63" y="346.85" width="2.06" height="35.15"/><rect class="cls-18" x="408.82" y="346.85" width="2.06" height="35.15"/><polygon class="cls-18" points="344 361.78 349.58 361.78 349.58 337.05 379.08 337.05 379.08 331.92 344 331.92 344 361.78"/><polygon class="cls-18" points="391.78 331.92 391.78 337.05 421.29 337.05 421.29 361.78 426.86 361.78 426.86 331.92 391.78 331.92"/><polygon class="cls-18" points="421.29 392.88 391.78 392.88 391.78 398.02 426.86 398.02 426.86 368.16 421.29 368.16 421.29 392.88"/><polygon class="cls-18" points="349.58 368.16 344 368.16 344 398.02 379.08 398.02 379.08 392.88 349.58 392.88 349.58 368.16"/><polygon class="cls-11" points="725.3 252.88 725.3 238.4 501.83 238.4 501.83 252.88 521.77 255.92 521.77 600.9 501.83 602.94 501.83 620.42 725.3 620.42 725.3 602.94 705.36 600.9 705.36 255.92 725.3 252.88"/><text class="cls-17" transform="translate(603.59 295.03)">3</text><text class="cls-12" transform="translate(579.81 463.08)">H<tspan class="cls-19" x="21.74" y="0">o</tspan><tspan x="40.61" y="0">w</tspan><tspan class="cls-13"><tspan x="-39.32" y="30">do businesses </tspan><tspan x="9.73" y="60">bu</tspan><tspan class="cls-20" x="35.43" y="60">y</tspan><tspan x="46.81" y="60">?</tspan></tspan></text><path class="cls-18" d="M599.89,384.12h41a2.74,2.74,0,0,0,2.66-2.07l8.21-32.83a2.74,2.74,0,0,0-2.66-3.4H591.64l-2.82-9a2.74,2.74,0,0,0-2.61-1.92H578a2.74,2.74,0,0,0,0,5.47h6.2l12.13,38.8a9.46,9.46,0,0,0-7.38,9.07c0,4.22,3,8.47,8.65,9.38a8.16,8.16,0,0,0,15.47.2H625a8.16,8.16,0,0,0,15.41,0h3.24a2.74,2.74,0,0,0,0-5.47h-3.24a8.16,8.16,0,0,0-15.41,0H613.06a8.17,8.17,0,0,0-15.32-.28,4,4,0,0,1-3.33-3.82C594.41,386.18,596.1,384.12,599.89,384.12Zm8.21-5.47h-6.2l-1.71-5.47h7.9Zm0-10.94h-9.61l-1.71-5.47h11.32Zm24.62-16.41h12.91l-1.39,5.59a2.75,2.75,0,0,0-.57-.11H632.71Zm0,10.94h10.17l-1.37,5.47h-8.81Zm0,10.94h7.44l-1.37,5.47h-6.07Zm-19.15-21.88h13.68v5.47H613.56Zm0,10.94h13.68v5.47H613.56Zm0,10.94h13.68v5.47H613.56Zm-18.5-16.41-1.71-5.47h14.74v5.47Zm37.65,35.29a3,3,0,1,1-3,3A3,3,0,0,1,632.71,392.05Zm-27.36,0a3,3,0,1,1-3,3A3,3,0,0,1,605.36,392.05Zm23.36-59.91,16.15,2.67a1.83,1.83,0,0,1,1.45,2.35l-1.81,5.93H632.67ZM596.6,343.08l-2.1-6.41a1.8,1.8,0,0,1,.11-1.39,1.82,1.82,0,0,1,1.07-.9l24.23-7.62a1.84,1.84,0,0,1,2.25,1l6.41,15.29Z"/><polygon class="cls-11" points="953.43 252.88 953.43 238.4 729.96 238.4 729.96 252.88 749.9 255.92 749.9 600.9 729.96 602.94 729.96 620.42 953.43 620.42 953.43 602.94 933.49 600.9 933.49 255.92 953.43 252.88"/><text class="cls-17" transform="translate(832.06 295.03)">4</text><text class="cls-12" transform="translate(807.1 463.08)">Who<tspan class="cls-13"><tspan class="cls-21" x="-26.6" y="30">p</tspan><tspan x="-13.79" y="30">a</tspan><tspan class="cls-22" x="-1.38" y="30">r</tspan><tspan x="7.02" y="30">tici</tspan><tspan class="cls-21" x="38.63" y="30">p</tspan><tspan class="cls-16" x="51.44" y="30">at</tspan><tspan x="71.65" y="30">es </tspan><tspan x="-16.38" y="60">in buying?</tspan></tspan></text><path class="cls-18" d="M865.6,373l-15.44-5.15-6,18.75v-8.47l-1.94-3,1.94-1.81-2.42-2.42-2.42,2.42,1.94,1.81-1.94,3v8.47l-6-18.75L817.79,373a5.07,5.07,0,0,0-3.23,3.75c-1,4-1.89,11.67-1.89,21.09h58.06c0-9.42-.91-17.06-1.89-21.09A5.07,5.07,0,0,0,865.6,373Z"/><polygon class="cls-18" points="852.77 364.68 854.44 365.23 855.96 362.42 852.77 363.61 852.77 364.68"/><polygon class="cls-18" points="830.62 364.68 830.62 363.45 830.43 362.7 826.35 361.34 824.63 366.67 830.62 364.68"/><path class="cls-18" d="M878.37,371.84h-7.86a9.44,9.44,0,0,1,2,4,80.48,80.48,0,0,1,1.71,12.83h16.34a90.19,90.19,0,0,0-1.67-18.19,4.32,4.32,0,0,0-2.73-3.22l-12.92-4.83Z"/><path class="cls-18" d="M856.21,344.09v3.74a7.31,7.31,0,0,1,.57.89c1.78,3.26.49,7.85-1.79,10.2a31.8,31.8,0,0,0,3.41.8l4.1,8.19,3.64,1.21,4.7-9.4a25.6,25.6,0,0,0,9.06-3.16s-4.58,0-4.58-12.54c0-7.79-4.66-11.9-10.7-11.9a9.94,9.94,0,0,0-9.67,6.25A12.26,12.26,0,0,1,856.21,344.09Z"/><path class="cls-18" d="M810.84,375.82a9.19,9.19,0,0,1,3.35-5.19l-3-9.29-13.81,4.6a4.54,4.54,0,0,0-2.89,3.35c-.88,3.61-1.69,10.44-1.69,19.36h16.34A80.52,80.52,0,0,1,810.84,375.82Z"/><path class="cls-18" d="M811,351.6l1.7,5v3.06l6.08,4.46-2.13,2.13,1.73,1.62-.76,1.19,2-.66-.34-.53,1.73-1.62-2.13-2.13,6.08-4.46v-3.06l1-3a7.79,7.79,0,0,1,.71-4.88,7.15,7.15,0,0,1,.57-.89v-4.2a11.51,11.51,0,0,1,.75-4.09c-.09-2.75-.88-4.55-3.38-4.55-.9-1.89-3.11-2.89-5.77-2.89-5.86,0-9.17,3.25-9.17,7.58v5.38a1.45,1.45,0,0,0-1.53.81c-.79,1.45,0,4.16,1.15,5.24A2.57,2.57,0,0,0,811,351.6Z"/><path class="cls-18" d="M833,356.95l1.48,6v2.42l7.26,5.44,7.26-5.44V363l1.48-6a2.37,2.37,0,0,0,1.7-.53c1.33-1.21,2.18-4.23,1.29-5.86-.62-1.14-1-.87-1-.87v-5.59c0-3.43-1.32-6.2-4.29-6.2-1-2.12-3.43-2.72-6.4-2.72-6.55,0-10.7,3.63-10.7,8.47v6s-.42-.27-1,.87c-.89,1.63,0,4.65,1.29,5.86A2.37,2.37,0,0,0,833,356.95Z"/><polygon class="cls-11" points="1181.56 252.88 1181.56 238.4 958.09 238.4 958.09 252.88 978.04 255.92 978.04 600.9 958.09 602.94 958.09 620.42 1181.56 620.42 1181.56 605.94 1161.62 600.9 1161.62 255.92 1181.56 252.88"/><text class="cls-17" transform="translate(1059.75 295.03)">5</text><text class="cls-12" transform="translate(1036.08 463.08)">H<tspan class="cls-19" x="21.74" y="0">o</tspan><tspan x="40.61" y="0">w</tspan><tspan class="cls-13"><tspan x="-12.43" y="30">a</tspan><tspan class="cls-14" x="-0.02" y="30">r</tspan><tspan x="7.52" y="30">e l</tspan><tspan class="cls-21" x="30.56" y="30">e</tspan><tspan x="43.11" y="30">ads </tspan><tspan x="-15.03" y="60">d</tspan><tspan class="cls-23" x="-2.17" y="60">e</tspan><tspan x="10.15" y="60">fined &amp; </tspan><tspan x="-22.77" y="90">m</tspan><tspan class="cls-21" x="-3.04" y="90">e</tspan><tspan x="9.51" y="90">asu</tspan><tspan class="cls-14" x="46.3" y="90">r</tspan><tspan x="53.84" y="90">ed?</tspan></tspan></text><polygon class="cls-18" points="1029.91 370.79 1029.91 392.93 1050.08 392.93 1050.08 356.33 1029.91 370.79"/><polygon class="cls-18" points="1068.14 368.22 1054.69 357.03 1054.69 392.93 1074.85 392.93 1074.85 363.52 1068.14 368.22"/><polygon class="cls-18" points="1079.47 360.29 1079.47 392.93 1099.63 392.93 1099.63 346.17 1079.47 360.29"/><polygon class="cls-18" points="1113.56 327 1095.44 327.58 1099.28 333.06 1068.63 354.52 1052.53 341.12 1026.09 360.09 1029.86 365.34 1052.24 349.29 1068.3 362.65 1102.99 338.36 1106.83 343.84 1113.56 327"/></svg>