<svg id="Layer_1" data-name="Layer 1" xmlns="http://www.w3.org/2000/svg" xmlns:xlink="http://www.w3.org/1999/xlink" viewBox="0 0 1224 792"><defs><style>.cls-1{fill:url(#linear-gradient);}.cls-2{fill:url(#linear-gradient-2);}.cls-3{fill:url(#linear-gradient-3);}.cls-4{fill:url(#linear-gradient-4);}.cls-5{fill:url(#linear-gradient-5);}.cls-6{fill:#666;}.cls-7{fill:#e6e6e6;}.cls-8{fill:#bfbfbf;}.cls-9{fill:#4d4d4d;}.cls-10{fill:#ccc;}.cls-11{fill:#a6a6a6;}.cls-12{fill:#333;}.cls-13{fill:#b3b3b3;}.cls-14{fill:#8c8c8c;}.cls-15{fill:#1a1a1a;}.cls-16{fill:#737373;}.cls-17{fill:#999;}.cls-18{fill:#9f772b;}.cls-19{fill:#bd9a37;}.cls-20{font-size:34.69px;fill:#232222;letter-spacing:0.04em;}.cls-20,.cls-24{font-family:Rogan-ExtraBold, Rogan;}.cls-20,.cls-24,.cls-37{font-weight:700;}.cls-21{letter-spacing:0.05em;}.cls-22{letter-spacing:0.04em;}.cls-23{letter-spacing:0.03em;}.cls-24{font-size:36px;}.cls-24,.cls-37{fill:#fff;}.cls-25{letter-spacing:-0.09em;}.cls-26{letter-spacing:-0.01em;}.cls-27{letter-spacing:0.01em;}.cls-28{letter-spacing:-0.01em;}.cls-29{letter-spacing:-0.01em;}.cls-30{letter-spacing:-0.01em;}.cls-31{letter-spacing:-0.02em;}.cls-32{letter-spacing:-0.01em;}.cls-33{letter-spacing:-0.02em;}.cls-34{letter-spacing:0em;}.cls-35{letter-spacing:-0.02em;}.cls-36{letter-spacing:0em;}.cls-37{font-size:18px;font-family:Rogan-SemiBold, Rogan;}.cls-38{letter-spacing:0.02em;}.cls-39{letter-spacing:-0.02em;}.cls-40{letter-spacing:-0.01em;}.cls-41{letter-spacing:-0.01em;}.cls-42{letter-spacing:-0.03em;}.cls-43{letter-spacing:0em;}.cls-44{letter-spacing:0em;}.cls-45{letter-spacing:-0.01em;}.cls-46{letter-spacing:0em;}.cls-47{letter-spacing:-0.02em;}.cls-48{letter-spacing:-0.01em;}.cls-49{fill:url(#linear-gradient-6);}.cls-50{fill:url(#linear-gradient-7);}</style><linearGradient id="linear-gradient" x1="89.48" y1="255.07" x2="1134.52" y2="255.07" gradientUnits="userSpaceOnUse"><stop offset="0" stop-color="gray"/><stop offset="0.5" stop-color="#171717"/><stop offset="1" stop-color="gray"/></linearGradient><linearGradient id="linear-gradient-2" x1="89.48" y1="344.56" x2="1134.52" y2="344.56" gradientUnits="userSpaceOnUse"><stop offset="0" stop-color="#666"/><stop offset="0.5" stop-color="#171717"/><stop offset="1" stop-color="#666"/></linearGradient><linearGradient id="linear-gradient-3" x1="89.48" y1="434.04" x2="1134.52" y2="434.04" gradientUnits="userSpaceOnUse"><stop offset="0" stop-color="#4d4d4d"/><stop offset="0.5" stop-color="#171717"/><stop offset="1" stop-color="#4d4d4d"/></linearGradient><linearGradient id="linear-gradient-4" x1="89.48" y1="523.53" x2="1134.52" y2="523.53" gradientUnits="userSpaceOnUse"><stop offset="0" stop-color="#333"/><stop offset="0.5" stop-color="#171717"/><stop offset="1" stop-color="#333"/></linearGradient><linearGradient id="linear-gradient-5" x1="89.48" y1="613.02" x2="1134.52" y2="613.02" gradientUnits="userSpaceOnUse"><stop offset="0" stop-color="#d7ab43"/><stop offset="0.07" stop-color="#d3a842"/><stop offset="0.14" stop-color="#c79e3f"/><stop offset="0.22" stop-color="#b28f3b"/><stop offset="0.29" stop-color="#957834"/><stop offset="0.36" stop-color="#705c2b"/><stop offset="0.44" stop-color="#443a21"/><stop offset="0.5" stop-color="#171717"/><stop offset="0.56" stop-color="#3e3520"/><stop offset="0.63" stop-color="#6c592b"/><stop offset="0.71" stop-color="#937633"/><stop offset="0.79" stop-color="#b18d3a"/><stop offset="0.86" stop-color="#c69e3f"/><stop offset="0.93" stop-color="#d3a842"/><stop offset="1" stop-color="#d7ab43"/></linearGradient><linearGradient id="linear-gradient-6" x1="747.88" y1="401.88" x2="747.88" y2="122.91" gradientUnits="userSpaceOnUse"><stop offset="0.3" stop-color="#0684b6"/><stop offset="0.38" stop-color="#0684b6" stop-opacity="0.98"/><stop offset="0.47" stop-color="#0684b6" stop-opacity="0.91"/><stop offset="0.56" stop-color="#0684b6" stop-opacity="0.8"/><stop offset="0.65" stop-color="#0684b6" stop-opacity="0.64"/><stop offset="0.74" stop-color="#0684b6" stop-opacity="0.44"/><stop offset="0.83" stop-color="#0684b6" stop-opacity="0.19"/><stop offset="0.89" stop-color="#0684b6" stop-opacity="0"/></linearGradient><linearGradient id="linear-gradient-7" x1="754.76" y1="401.88" x2="754.76" y2="122.91" gradientTransform="matrix(-1, 0, 0, 1, 1230.88, 0)" gradientUnits="userSpaceOnUse"><stop offset="0.3" stop-color="#0684b6"/><stop offset="0.38" stop-color="#0684b6" stop-opacity="0.98"/><stop offset="0.47" stop-color="#0684b6" stop-opacity="0.91"/><stop offset="0.56" stop-color="#0684b6" stop-opacity="0.8"/><stop offset="0.65" stop-color="#0684b6" stop-opacity="0.64"/><stop offset="0.74" stop-color="#0684b6" stop-opacity="0.44"/><stop offset="0.83" stop-color="#0684b6" stop-opacity="0.19"/><stop offset="0.89" stop-color="#0684b6" stop-opacity="0"/></linearGradient></defs><title>177426-06995 Artboard 1 copy 3</title><rect class="cls-1" x="89.48" y="223.76" width="1045.03" height="62.62"/><rect class="cls-2" x="89.48" y="313.25" width="1045.03" height="62.62"/><rect class="cls-3" x="89.48" y="402.73" width="1045.03" height="62.62"/><rect class="cls-4" x="89.48" y="492.22" width="1045.03" height="62.62"/><rect class="cls-5" x="89.48" y="581.71" width="1045.03" height="62.62"/><polygon class="cls-6" points="612 351.21 864.38 286.38 612 221.52 359.62 286.38 612 351.21"/><polygon class="cls-7" points="908.53 223.76 612 147.59 612 221.56 864.38 286.38 908.53 223.76"/><polygon class="cls-8" points="315.47 223.76 612 147.59 612 221.56 359.62 286.38 315.47 223.76"/><polygon class="cls-9" points="612 424.51 801.29 375.89 612 327.22 422.71 375.89 612 424.51"/><polygon class="cls-10" points="845.43 313.25 612 253.3 612 327.26 801.29 375.89 845.43 313.25"/><polygon class="cls-11" points="378.57 313.25 612 253.3 612 327.26 422.71 375.89 378.57 313.25"/><polygon class="cls-12" points="612 497.81 738.19 465.4 612 432.93 485.81 465.4 612 497.81"/><polygon class="cls-13" points="782.34 402.76 612 359.02 612 432.98 738.19 465.4 782.34 402.76"/><polygon class="cls-14" points="441.66 402.76 612 359.02 612 432.98 485.81 465.4 441.66 402.76"/><polygon class="cls-15" points="612 571.12 675.09 554.91 612 538.63 548.91 554.91 612 571.12"/><polygon class="cls-16" points="504.75 492.27 612 464.72 612 538.7 548.91 554.91 504.75 492.27"/><polygon class="cls-17" points="719.25 492.27 612 464.72 612 538.7 675.09 554.91 719.25 492.27"/><polygon class="cls-18" points="567.85 581.78 612 570.44 612 644.4 567.85 581.78"/><polygon class="cls-19" points="656.15 581.78 612 570.44 612 644.4 656.15 581.78"/><text class="cls-20" transform="translate(496.02 72.65)">S<tspan class="cls-21" x="19.84" y="0">ALES </tspan><tspan class="cls-22" x="107.51" y="0">F</tspan><tspan class="cls-21" x="125.38" y="0">UNNE</tspan><tspan class="cls-23" x="214.68" y="0">L</tspan></text><text class="cls-24" transform="translate(1011.81 267.57)">LEADS<tspan class="cls-25" x="-33.84" y="89">T</tspan><tspan x="-20.16" y="89">A</tspan><tspan class="cls-26" x="0.5" y="89">R</tspan><tspan x="20.38" y="89">G</tspan><tspan class="cls-27" x="41.51" y="89">E</tspan><tspan class="cls-28" x="60.23" y="89">T</tspan><tspan x="76.79" y="89">S</tspan><tspan x="-77.22" y="178">P</tspan><tspan class="cls-29" x="-57.67" y="178">R</tspan><tspan x="-37.8" y="178">OSP</tspan><tspan class="cls-30" x="22.43" y="178">E</tspan><tspan class="cls-31" x="40.5" y="178">C</tspan><tspan class="cls-32" x="60.23" y="178">T</tspan><tspan x="76.79" y="178">S</tspan><tspan x="-58.03" y="267">Q</tspan><tspan class="cls-33" x="-36.43" y="267">U</tspan><tspan x="-15.84" y="267">ALIFIE</tspan><tspan class="cls-34" x="74.95" y="267">D</tspan><tspan x="95.87" y="267"></tspan><tspan x="-82.83" y="356">CONVE</tspan><tspan class="cls-35" x="20.16" y="356">R</tspan><tspan x="39.67" y="356">TE</tspan><tspan class="cls-36" x="74.95" y="356">D</tspan></text><text class="cls-37" transform="translate(104.49 249.98)">Inbound &amp;<tspan class="cls-36" x="77.31" y="0"> </tspan><tspan x="80.91" y="0">Outbound</tspan><tspan x="0" y="21">Inqui</tspan><tspan class="cls-38" x="37.28" y="21">r</tspan><tspan x="43.5" y="21">y</tspan></text><text class="cls-37" transform="translate(104.49 350.38)">Demand<tspan class="cls-36" x="63.32" y="0"> </tspan><tspan x="66.92" y="0">Gen &amp;</tspan><tspan class="cls-39" x="111.74" y="0"> </tspan><tspan x="115.07" y="0">ABM</tspan></text><text class="cls-37" transform="translate(104.49 440.01)">Nu<tspan class="cls-38" x="20.97" y="0">r</tspan><tspan class="cls-36" x="27.2" y="0">t</tspan><tspan x="33.23" y="0">uring &amp;</tspan><tspan class="cls-39" x="86.87" y="0"> </tspan><tspan class="cls-36" x="90.2" y="0">A</tspan><tspan x="100.04" y="0">u</tspan><tspan class="cls-40" x="109.66" y="0">t</tspan><tspan x="115.58" y="0">om</tspan><tspan class="cls-41" x="139.99" y="0">a</tspan><tspan x="149.04" y="0">tion</tspan></text><text class="cls-37" transform="translate(104.49 620.02)">Closed/<tspan class="cls-42" x="58.54" y="0">W</tspan><tspan x="73.06" y="0">on</tspan></text><text class="cls-37" transform="translate(104.49 518.8)"><tspan class="cls-43">S</tspan><tspan x="9.47" y="0">ales</tspan><tspan class="cls-36" x="40.86" y="0"> </tspan><tspan x="44.46" y="0">Qualifi</tspan><tspan class="cls-44" x="92.3" y="0">c</tspan><tspan class="cls-45" x="101.36" y="0">a</tspan><tspan x="110.41" y="0">tion</tspan><tspan class="cls-31" x="0" y="21">A</tspan><tspan x="9.61" y="21">Q</tspan><tspan class="cls-32" x="20.34" y="21">Ls</tspan><tspan x="36.81" y="21">,</tspan><tspan class="cls-32" x="39.78" y="21"> </tspan><tspan class="cls-25" x="43.29" y="21">T</tspan><tspan x="50.04" y="21">A</tspan><tspan class="cls-32" x="59.97" y="21">Ls</tspan><tspan class="cls-46" x="76.44" y="21">,</tspan><tspan class="cls-32" x="79.41" y="21"> </tspan><tspan class="cls-47" x="82.92" y="21">T</tspan><tspan x="90.91" y="21">Q</tspan><tspan class="cls-32" x="101.64" y="21">Ls</tspan><tspan x="118.11" y="21">,</tspan><tspan class="cls-32" x="121.08" y="21"> </tspan><tspan class="cls-47" x="124.59" y="21">T</tspan><tspan x="132.58" y="21">G</tspan><tspan class="cls-48" x="143.09" y="21">L</tspan><tspan x="151.14" y="21">s</tspan></text><polygon class="cls-49" points="801.39 129.83 774.44 122.91 707.63 314.54 694.37 311.13 694.37 401.88 748.54 325.05 732.99 321.06 801.39 129.83"/><polygon class="cls-50" points="422.61 129.83 449.56 122.91 516.37 314.54 529.63 311.13 529.63 401.88 475.46 325.05 491.01 321.06 422.61 129.83"/></svg>