<svg xmlns="http://www.w3.org/2000/svg" xmlns:xlink="http://www.w3.org/1999/xlink" viewBox="0 0 956.95 580.47"><defs><style>.cls-1{isolation:isolate;}.cls-2{fill:#dcddde;}.cls-3{font-size:21px;fill:#232222;}.cls-10,.cls-3,.cls-5{font-family:Rogan-Bold, Rogan;font-weight:700;}.cls-4{fill:#bd9a37;}.cls-5{font-size:30px;}.cls-10,.cls-5{fill:#fff;}.cls-6{letter-spacing:-0.02em;}.cls-7{letter-spacing:0em;}.cls-8{fill:#0084b6;}.cls-9{opacity:0.78;mix-blend-mode:overlay;fill:url(#linear-gradient);}.cls-10{opacity:0.6;font-size:12.11px;}</style><linearGradient id="linear-gradient" x1="459.06" y1="466.33" x2="524.38" y2="114.65" gradientUnits="userSpaceOnUse"><stop offset="0" stop-color="#fff" stop-opacity="0"/><stop offset="0.33" stop-color="#fff"/><stop offset="0.7" stop-color="#fff" stop-opacity="0"/><stop offset="1" stop-color="#fff"/></linearGradient></defs><title>177426-06995 Artboard 15</title><g class="cls-1"><g id="Layer_1" data-name="Layer 1"><path class="cls-2" d="M318.69,150.64l21.86,42.55a178.71,178.71,0,0,1,143-83.82l24.58-38.91-26-41.15A258.72,258.72,0,0,0,271.83,152.08Z"/><path class="cls-2" d="M522.36,70.46l-24.51,38.8a178.69,178.69,0,0,1,145.67,83.43l47.76,2.65,22.51-41.26A258.73,258.73,0,0,0,496.26,29.15Z"/><path class="cls-2" d="M698.19,207.74l-47.51-2.64a179,179,0,0,1-1.39,168.36l21.94,42.71,46.71-1.43a259.13,259.13,0,0,0,2.83-248.38Z"/><path class="cls-2" d="M284.52,371.3l51,2.83a179,179,0,0,1-2-168.52l-22-42.75-46.77,1.44a259.21,259.21,0,0,0-1.09,245.29Z"/><path class="cls-2" d="M664,428.4,642,385.6a178.68,178.68,0,0,1-140.94,81l-26.55,42,24.12,38.18A258.69,258.69,0,0,0,710.61,427Z"/><path class="cls-2" d="M460.34,508.59,486.8,466.7A178.65,178.65,0,0,1,343,386.57l-51.58-2.87L270.6,421.87A258.74,258.74,0,0,0,484.44,546.72Z"/><text class="cls-3" transform="matrix(0.73, -0.68, 0.68, 0.73, 345.03, 139.67)">C</text><text class="cls-3" transform="matrix(0.77, -0.64, 0.64, 0.77, 353.51, 131.69)">O</text><text class="cls-3" transform="translate(362.98 123.76) rotate(-36.34)">N</text><text class="cls-3" transform="matrix(0.84, -0.55, 0.55, 0.84, 373.57, 116.03)">T</text><text class="cls-3" transform="matrix(0.86, -0.51, 0.51, 0.86, 381.64, 110.73)">E</text><text class="cls-3" transform="translate(390.59 105.42) rotate(-27.22)">N</text><text class="cls-3" transform="translate(402.26 99.47) rotate(-24.14)">T</text><text class="cls-3" transform="translate(409.16 96.31) rotate(-21.82)">/</text><text class="cls-3" transform="matrix(0.94, -0.34, 0.34, 0.94, 416.12, 93.42)">O</text><text class="cls-3" transform="translate(427.8 89.27) rotate(-16.68)">F</text><text class="cls-3" transform="matrix(0.97, -0.24, 0.24, 0.97, 437.13, 86.47)">F</text><text class="cls-3" transform="translate(446.57 84.1) rotate(-11.23)">E</text><text class="cls-3" transform="translate(456.81 82.05) rotate(-8.2)">R</text><text class="cls-3" transform="matrix(0.97, 0.25, -0.25, 0.97, 538.77, 84.29)">C</text><text class="cls-3" transform="translate(550.04 87.18) rotate(17.79)">H</text><text class="cls-3" transform="translate(561.92 91) rotate(21.12)">A</text><text class="cls-3" transform="translate(572.77 95.16) rotate(24.54)">N</text><text class="cls-3" transform="matrix(0.88, 0.47, -0.47, 0.88, 584.67, 100.58)">N</text><text class="cls-3" transform="translate(596.2 106.79) rotate(31.38)">E</text><text class="cls-3" transform="translate(605.12 112.24) rotate(34.1)">L</text><text class="cls-3" transform="translate(612.74 117.44) rotate(35.88)"> </text><text class="cls-3" transform="translate(616.12 119.85) rotate(37.59)">D</text><text class="cls-3" transform="matrix(0.75, 0.66, -0.66, 0.75, 625.63, 127.26)">E</text><text class="cls-3" transform="translate(633.51 134.15) rotate(43.82)">L</text><text class="cls-3" transform="translate(640.34 140.75) rotate(45.8)">I</text><text class="cls-3" transform="translate(643.85 144.26) rotate(48.03)">V</text><text class="cls-3" transform="matrix(0.63, 0.78, -0.78, 0.63, 651.35, 152.62)">E</text><text class="cls-3" transform="matrix(0.59, 0.81, -0.81, 0.59, 657.92, 160.7)">R</text><text class="cls-3" transform="translate(664.45 169.7) rotate(56.96)">Y</text><text class="cls-3" transform="translate(691.65 225.25) rotate(74.96)">W</text><text class="cls-3" transform="translate(696.11 242.27) rotate(78.82)">E</text><text class="cls-3" transform="translate(698.15 252.51) rotate(81.88)">B</text><text class="cls-3" transform="translate(699.71 263.62) rotate(84.52)">/</text><text class="cls-3" transform="translate(700.53 271.94) rotate(86.99)">L</text><text class="cls-3" transform="matrix(0, 1, -1, 0, 701.05, 281.39)">A</text><text class="cls-3" transform="translate(701.1 293.02) rotate(93.28)">N</text><text class="cls-3" transform="translate(700.35 306.07) rotate(96.69)">D</text><text class="cls-3" transform="translate(698.87 318.12) rotate(99.15)">I</text><text class="cls-3" transform="matrix(-0.2, 0.98, -0.98, -0.2, 698.18, 323.02)">N</text><text class="cls-3" transform="translate(695.58 335.83) rotate(104.86)">G</text><text class="cls-3" transform="matrix(-0.29, 0.96, -0.96, -0.29, 692.42, 347.47)"> </text><text class="cls-3" transform="translate(691.26 351.45) rotate(109.18)">P</text><text class="cls-3" transform="matrix(-0.38, 0.92, -0.92, -0.38, 687.65, 361.91)">G</text><text class="cls-3" transform="translate(683.04 373.08) rotate(115.54)">S</text><text class="cls-3" transform="matrix(-0.46, 0.89, -0.89, -0.46, 678.37, 382.72)">.</text><text class="cls-3" transform="matrix(-0.78, 0.63, -0.63, -0.78, 628.47, 446.28)">A</text><text class="cls-3" transform="translate(619.78 453.37) rotate(144.11)">U</text><text class="cls-3" transform="matrix(-0.84, 0.54, -0.54, -0.84, 609.84, 460.53)">T</text><text class="cls-3" transform="translate(602.11 465.59) rotate(150.04)">O</text><text class="cls-3" transform="translate(591.43 471.8) rotate(153.81)">M</text><text class="cls-3" transform="translate(577.84 478.53) rotate(158.26)">A</text><text class="cls-3" transform="translate(568.74 482.24) rotate(159.79)">T</text><text class="cls-3" transform="translate(559.63 485.56) rotate(161.78)">I</text><text class="cls-3" transform="translate(554.97 487.17) rotate(164.15)">O</text><text class="cls-3" transform="matrix(-0.98, 0.21, -0.21, -0.98, 543.08, 490.57)">N</text><text class="cls-3" transform="matrix(-0.98, -0.21, 0.21, -0.98, 453.03, 493.13)">S</text><text class="cls-3" transform="translate(442.56 490.88) rotate(-164.66)">A</text><text class="cls-3" transform="translate(431.35 487.78) rotate(-161.74)">L</text><text class="cls-3" transform="matrix(-0.93, -0.36, 0.36, -0.93, 422.34, 484.82)">E</text><text class="cls-3" transform="translate(412.61 481.1) rotate(-156.05)">S</text><text class="cls-3" transform="matrix(-0.9, -0.44, 0.44, -0.9, 402.65, 476.61)"> </text><text class="cls-3" transform="matrix(-0.88, -0.47, 0.47, -0.88, 398.91, 474.85)">E</text><text class="cls-3" transform="matrix(-0.85, -0.52, 0.52, -0.85, 389.7, 469.99)">N</text><text class="cls-3" transform="translate(378.51 463.17) rotate(-145.37)">A</text><text class="cls-3" transform="translate(368.94 456.64) rotate(-141.71)">B</text><text class="cls-3" transform="matrix(-0.76, -0.65, 0.65, -0.76, 359.76, 449.43)">L</text><text class="cls-3" transform="matrix(-0.73, -0.69, 0.69, -0.73, 352.56, 443.27)">E</text><text class="cls-3" transform="translate(344.94 436.2) rotate(-133.15)">M</text><text class="cls-3" transform="translate(334.57 425.04) rotate(-129.62)">E</text><text class="cls-3" transform="matrix(-0.59, -0.81, 0.81, -0.59, 327.89, 417.04)">N</text><text class="cls-3" transform="translate(320.16 406.46) rotate(-123.23)">T</text><text class="cls-3" transform="translate(284.38 308.85) rotate(-94.06)">A</text><text class="cls-3" transform="translate(283.53 297.29) rotate(-90.67)">N</text><text class="cls-3" transform="translate(283.4 284.2) rotate(-87.29)">A</text><text class="cls-3" transform="translate(283.97 272.57) rotate(-84.42)">L</text><text class="cls-3" transform="translate(284.54 265.58) rotate(-81.76)">Y</text><text class="cls-3" transform="translate(285.98 255.29) rotate(-79.74)">Z</text><text class="cls-3" transform="translate(287.64 246.03) rotate(-77.04)">E</text><circle class="cls-4" cx="492.19" cy="287.96" r="167.23"/><text class="cls-5" transform="translate(442.51 261.98)">B<tspan class="cls-6" x="16.86" y="0">r</tspan><tspan x="26.22" y="0">and &amp; </tspan><tspan x="-13.86" y="36">Cam</tspan><tspan class="cls-7" x="43.23" y="36">p</tspan><tspan x="59.25" y="36">aign</tspan><tspan x="-18.3" y="72">Messaging</tspan></text><path class="cls-8" d="M492.19,109.14A178.82,178.82,0,1,0,671,288,178.82,178.82,0,0,0,492.19,109.14Zm0,333.67A154.86,154.86,0,1,1,647,288,154.86,154.86,0,0,1,492.19,442.82Z"/><path class="cls-9" d="M336.08,375.2a178.84,178.84,0,0,1,154.22-266l7.9,12.5L491,133.12A154.88,154.88,0,0,0,356.74,363.06l-14.57-.21ZM504.26,121.67,497,133.18A154.88,154.88,0,0,1,624.31,368.77l5.35,12,15.2.35A178.84,178.84,0,0,0,496.38,109.2ZM626.31,385.79,621,373.93a154.89,154.89,0,0,1-261.27-5.7l-14.4-.21-6.17,12.5a178.85,178.85,0,0,0,302.48,5.62Z"/><text class="cls-10" transform="translate(572.31 148.2) rotate(30.98)">C</text><text class="cls-10" transform="translate(580.49 153.2) rotate(34.47)">O</text><text class="cls-10" transform="translate(588.71 158.94) rotate(38.13)">N</text><text class="cls-10" transform="matrix(0.75, 0.66, -0.66, 0.75, 596.86, 165.49)">T</text><text class="cls-10" transform="translate(603.14 171.17) rotate(44.06)">I</text><text class="cls-10" transform="translate(607.25 175.16) rotate(46.97)">N</text><text class="cls-10" transform="translate(614.3 182.85) rotate(50.62)">U</text><text class="cls-10" transform="matrix(0.59, 0.81, -0.81, 0.59, 620.56, 190.62)">O</text><text class="cls-10" transform="matrix(0.53, 0.85, -0.85, 0.53, 626.35, 198.79)">U</text><text class="cls-10" transform="matrix(0.49, 0.87, -0.87, 0.49, 631.58, 207.29)">S</text><text class="cls-10" transform="matrix(0.44, 0.9, -0.9, 0.44, 635.94, 215.34)"> </text><text class="cls-10" transform="translate(638.27 220.08) rotate(66.16)">P</text><text class="cls-10" transform="translate(641.95 228.59) rotate(69.5)">R</text><text class="cls-10" transform="translate(645.18 237.44) rotate(72.95)">O</text><text class="cls-10" transform="translate(648.03 247.07) rotate(76.47)">C</text><text class="cls-10" transform="translate(650.19 256.42) rotate(79.78)">E</text><text class="cls-10" transform="translate(651.7 265.22) rotate(83.03)">S</text><text class="cls-10" transform="translate(652.73 274.29) rotate(86.3)">S</text><text class="cls-10" transform="matrix(-0.89, 0.45, -0.45, -0.89, 567.4, 430.45)">C</text><text class="cls-10" transform="translate(558.79 434.68) rotate(156.83)">O</text><text class="cls-10" transform="translate(549.54 438.55) rotate(160.48)">N</text><text class="cls-10" transform="translate(539.65 441.94) rotate(163.87)">T</text><text class="cls-10" transform="translate(531.49 444.2) rotate(166.42)">I</text><text class="cls-10" transform="translate(525.92 445.54) rotate(169.32)">N</text><text class="cls-10" transform="translate(515.65 447.38) rotate(172.97)">U</text><text class="cls-10" transform="translate(505.74 448.51) rotate(176.54)">O</text><text class="cls-10" transform="translate(495.73 449.03) rotate(-179.93)">U</text><text class="cls-10" transform="translate(485.76 448.9) rotate(-177.05)">S</text><text class="cls-10" transform="translate(476.63 448.27) rotate(-174.05)"> </text><text class="cls-10" transform="matrix(-0.99, -0.15, 0.15, -0.99, 471.38, 447.71)">P</text><text class="cls-10" transform="translate(462.22 446.26) rotate(-168.15)">R</text><text class="cls-10" transform="translate(453.01 444.25) rotate(-164.7)">O</text><text class="cls-10" transform="translate(443.35 441.51) rotate(-161.18)">C</text><text class="cls-10" transform="translate(434.3 438.33) rotate(-157.86)">E</text><text class="cls-10" transform="translate(426.06 434.89) rotate(-154.62)">S</text><text class="cls-10" transform="translate(417.84 430.91) rotate(-151.35)">S</text><text class="cls-10" transform="translate(331.09 287.02) rotate(-88.5)">C</text><text class="cls-10" transform="matrix(0.09, -1, 1, 0.09, 331.41, 277.43)">O</text><text class="cls-10" transform="translate(332.37 267.45) rotate(-81.35)">N</text><text class="cls-10" transform="translate(334.05 257.13) rotate(-77.96)">T</text><text class="cls-10" transform="matrix(0.25, -0.97, 0.97, 0.25, 335.91, 248.88)">I</text><text class="cls-10" transform="translate(337.36 243.33) rotate(-72.52)">N</text><text class="cls-10" transform="matrix(0.36, -0.93, 0.93, 0.36, 340.59, 233.41)">U</text><text class="cls-10" transform="translate(344.26 224.14) rotate(-65.3)">O</text><text class="cls-10" transform="matrix(0.47, -0.88, 0.88, 0.47, 348.53, 215.07)">U</text><text class="cls-10" transform="translate(353.35 206.34) rotate(-58.88)">S</text><text class="cls-10" transform="matrix(0.56, -0.83, 0.83, 0.56, 358.21, 198.59)"> </text><text class="cls-10" transform="matrix(0.6, -0.8, 0.8, 0.6, 361.19, 194.22)">P</text><text class="cls-10" transform="translate(366.79 186.83) rotate(-49.99)">R</text><text class="cls-10" transform="matrix(0.69, -0.73, 0.73, 0.69, 372.91, 179.66)">O</text><text class="cls-10" transform="translate(379.88 172.44) rotate(-43.01)">C</text><text class="cls-10" transform="translate(386.96 165.96) rotate(-39.7)">E</text><text class="cls-10" transform="matrix(0.8, -0.59, 0.59, 0.8, 393.88, 160.31)">S</text><text class="cls-10" transform="translate(401.27 154.95) rotate(-33.19)">S</text></g></g></svg>